<svg width="166" height="159" viewBox="0 0 166 159" fill="none" xmlns="http://www.w3.org/2000/svg">
<path d="M83.8492 5.83532L108.289 45.1432C109.803 47.5788 112.209 49.3267 114.993 50.0143L159.93 61.1111C160.649 61.2887 160.932 62.1598 160.455 62.7264L130.623 98.1168C128.774 100.31 127.856 103.138 128.062 105.998L131.394 152.164C131.448 152.904 130.707 153.442 130.02 153.163L87.1436 135.727C84.4868 134.647 81.5132 134.647 78.8564 135.727L35.9796 153.163C35.2932 153.442 34.5522 152.904 34.6055 152.164L37.938 105.998C38.1444 103.138 37.2255 100.31 35.3771 98.1168L5.54537 62.7264C5.06777 62.1598 5.3508 61.2887 6.07023 61.1111L51.0066 50.0143C53.7909 49.3267 56.1966 47.5788 57.711 45.1432L82.1508 5.83532C82.542 5.20601 83.458 5.206 83.8492 5.83532Z" fill="#2D7D97" stroke="#409FD5" stroke-width="10"/>
</svg>
